<svg width="320" height="113" viewBox="0 0 320 113" fill="none" xmlns="http://www.w3.org/2000/svg">
<g clip-path="url(#clip0)" filter="url(#filter0_i)">
<path d="M69.9 88.7V54.6H79.9V88.8H69.9V88.7ZM87 88.7V54.6H97V58.9C98.4 55.9 102.2 53.9 106.8 53.9C115 53.9 119.7 59.2 119.7 68.1V88.9H109.8V69.2C109.8 65.2 107.6 62.7 103.7 62.7C101.9 62.6 100.2 63.3 98.9 64.6C97.6 65.9 97 67.6 97 69.5V88.8H87V88.7ZM129.3 88.7V63.7H123.8V54.6H129.3V53.7C129.3 48.8 130.6 45.2 133.2 43.1C135.1 41.5 138.3 40.6 142.5 40.6C143.8 40.6 145.2 40.7 146.5 40.9V49.3C145.5 49 144.5 48.9 143.5 49C140.3 49 138.9 50.2 138.9 53.1V54.7H145.6V63.8H139V88.7H129.3ZM180.3 58.9C183.9 62.1 185.9 66.8 185.8 71.7C185.9 76.6 183.9 81.3 180.3 84.6C172.8 91.6 161.3 91.6 153.8 84.6C150.3 81.3 148.3 76.6 148.4 71.7C148.3 66.8 150.3 62.2 153.8 58.9C161.2 51.8 172.8 51.8 180.3 58.9ZM160.8 78C164.3 81.4 169.8 81.4 173.2 78C174.9 76.3 175.8 74 175.7 71.6C175.7 69.2 174.8 67 173.2 65.3C171.6 63.6 169.3 62.7 167 62.7C164.7 62.7 162.4 63.7 160.8 65.3C159.1 67 158.2 69.2 158.3 71.6C158.2 74.1 159.2 76.4 160.8 78ZM223.4 63.7H219V54.6H223.4V41.6H233.1V54.6H240.6V63.7H233.1V75.9C233.1 79.2 234.4 80.4 237.4 80.4C238.3 80.4 239.1 80.3 239.9 80.1V89.1C238.3 89.5 236.7 89.6 235 89.6C227.2 89.6 223.4 85.5 223.4 77.4V63.7ZM245.5 54.6H255.6V74.1C255.6 78.4 258.1 80.4 261.7 80.4C265.3 80.4 267.8 78.4 267.8 74.1V54.6H277.9V75C278.2 79.2 276.4 83.3 273.2 85.9C269.9 88.5 265.8 89.8 261.7 89.7C257.5 89.8 253.4 88.5 250.1 85.9C247 83.2 245.2 79.2 245.5 75V54.6ZM309.7 59.1V41.5H319.7V88.7H309.7V84.3C308.7 87.3 304.8 89.4 299.7 89.4C295.2 89.5 290.8 87.7 287.7 84.3C284.5 80.9 282.8 76.4 282.9 71.7C282.8 67 284.5 62.5 287.7 59.2C290.8 55.8 295.1 53.9 299.7 54.1C304.7 54 308.7 56.1 309.7 59.1ZM307.7 77.8C309.4 76.2 310.3 74 310.3 71.7C310.3 69.4 309.4 67.2 307.7 65.7C306.1 64 303.8 63.1 301.5 63.2C299.2 63.1 297 64 295.4 65.7C293.8 67.3 292.9 69.5 292.9 71.7C292.9 74 293.8 76.2 295.4 77.8C297 79.4 299.2 80.3 301.5 80.2C303.8 80.3 306 79.4 307.7 77.8ZM74.9 38.1C71.8 38.1 69.3 40.7 69.4 43.8C69.4 46.9 71.9 49.5 75 49.5C78.1 49.5 80.6 47 80.6 43.8C80.6 42.3 80 40.8 79 39.8C78 38.8 76.4 38.1 74.9 38.1ZM208.9 68.5C205.2 67.1 202.4 66.7 201.1 66.1C199.8 65.5 199.7 65.2 199.7 64.3C199.7 63 200.9 62.1 203 62.1C205.5 62.2 208 62.8 210.3 63.9L214.4 56.7C211 54.8 207.1 53.7 203.2 53.6C199.9 53.5 196.6 54.5 193.9 56.5C191.4 58.4 189.9 61.4 190.1 64.6C190.1 69.1 192.7 72.3 197.8 74.1C198.8 74.4 200.3 74.9 202.3 75.4C203.7 75.7 205.1 76.1 206.4 76.8C207.1 77.1 207.5 77.7 207.5 78.4C207.5 80.2 205.8 81.4 202.4 81C199 80.7 195.8 79.5 193 77.6L188.6 85.3C192.6 88.2 197.3 89.7 202.1 89.8C212 89.8 216.9 85.3 216.9 78.3C217.1 73.6 214.4 70.4 208.9 68.5Z" fill="#F1F5F8"/>
<path d="M62.3 54.5C60.8 53.1 58.3 53.2 56.9 54.7C56 55.6 54.8 56.4 53.6 57C52.6 57.5 51.5 57.8 50.5 57.9C49.5 58.1 48.5 58.1 47.6 57.9C46.9 57.8 46.1 57.6 45.5 57.2C39.7 53.1 43.3 48.1 39.7 44.9C50.2 45.4 60.4 42.8 67.6 33.5C68.1 32.9 68.2 32.2 68.1 31.4C68 30.7 67.5 30 66.9 29.6C65.7 28.9 64.1 29.1 63.3 30.3C59 36.1 51.9 40 42.3 39.2C37.2 39 32.4 36.9 28.8 33.3C25.6 29.8 24.1 25.1 24.7 20.4C25.7 12.9 31.6 6.90001 39.3 5.90001C43.9 5.30001 48.5 6.40001 52.2 9.10001C54.7 11.2 56.3 14.1 56.7 17.3C56.9 18.4 56.1 19.5 55 19.7C53.9 19.9 52.8 19.3 52.5 18.2C51.6 15 50 12.3 46.6 11.1C41.7 9.50001 36.4 11.1 33.3 15.2C30.2 19.2 30.1 24.7 33.1 28.9C34.5 30.6 36.4 31.9 38.6 32.4C43.1 33.6 49.5 33 52.3 27.6C53.8 28.3 55.6 28.5 57.2 28.1C62.1 26.4 64.4 17.8 61 11.1C56.6 2.80001 47.2 -1.19999 37.5 0.300013C27.7 1.80001 20 9.50001 18.5 19.2C17 28.9 22.2 38.4 31.1 42.6C31.5 42.8 32 43 32.4 43.2C31.5 43.2 30.4 43.3 30 43.4C28.1 43.6 26.3 43.9 24.4 44.3C14.8 46.5 6.39999 52.1 0.699994 60C0.0999939 60.8 -0.100006 61.8 0.0999939 62.8C0.299994 63.8 0.799994 64.6 1.69999 65.2C2.49999 65.8 3.59999 66 4.59999 65.8C5.59999 65.6 6.49999 65.1 7.09999 64.2C8.79999 61.8 10.9 59.6 13.2 57.7C14 57.1 14.8 56.4 15.7 55.9C17 55.1 18.5 54.7 20.1 54.8C22.9 54.8 25.5 56.3 26.9 58.7C27.5 59.8 27.8 61 27.8 62.3C27.5 64 27 65.6 26 66.9L6.19999 100.7L3.09999 106C2.29999 107.4 2.29999 109.2 3.09999 110.6C3.89999 112 5.49999 112.9 7.19999 112.9C8.89999 112.9 10.4 112 11.3 110.6L23.3 90.3C23.3 90.3 25.4 86.7 26.2 85.5C26.7 84.6 28 82.3 28.3 81.9C29.3 80.7 30.7 79.9 32.3 79.8H32.9C36.1 79.8 38.7 82.4 38.8 85.5C38.8 86.3 38.7 87 38.3 87.7C38.1 88.2 34.5 94.2 33.5 95.8C32.7 97.2 32.7 99 33.5 100.4C34.3 101.8 35.9 102.7 37.6 102.7C39.3 102.7 40.8 101.8 41.6 100.4C42.9 98.3 47.3 90.9 47.5 90.6C48.4 88.9 48.8 87 48.8 85C48.8 78.3 43.6 72.8 36.8 72.1L38.4 69.3L40.6 65.6C41.1 64.6 42.3 64.1 43.4 64.5C50.2 66.7 57.7 64.8 62.6 59.7C63.9 58.2 63.8 55.9 62.3 54.5ZM46.5 23.3C44.6 25.5 41.3 25.8 39 24C38 23 37.4 21.7 37.4 20.3C37.4 18.9 38 17.6 39 16.6C40.9 14.4 44.2 14.1 46.5 15.9C47.5 16.9 48.1 18.2 48.1 19.6C48.1 21 47.5 22.3 46.5 23.3Z" fill="#F1F5F8"/>
<path d="M129.9 112.9L138.7 96.6H69.4V112.9H129.9Z" fill="#F1F5F8"/>
<path d="M81.3 99.8L79.6 101.3C78.9 100.6 77.9 100.2 76.9 100.2C75.9 100.2 75 100.6 74.3 101.3C73.6 102 73.1 103 73.2 104C73.2 105 73.5 106 74.2 106.7C75.6 108.1 77.8 108.1 79.3 106.8V105.1H76.4V102.8H81.8V107.6C80.6 109.1 78.8 110 77 110C75.4 110.1 73.8 109.5 72.6 108.3C71.5 107.2 70.8 105.6 70.8 103.9C70.8 102.2 71.4 100.7 72.6 99.5C73.8 98.4 75.4 97.8 77 97.8C78.5 97.9 80.1 98.6 81.3 99.8ZM84.1 109.9V98.1H88.9C89.9 98.1 90.9 98.5 91.6 99.2C92.5 100.1 92.9 101.3 92.7 102.5C92.5 103.7 91.8 104.8 90.7 105.3L93.5 109.9H90.6L88.2 105.9H86.5V109.9H84.1ZM86.6 103.6H88.6C89 103.6 89.5 103.5 89.8 103.1C90.1 102.8 90.3 102.3 90.2 101.9C90.2 101.5 90.1 101.1 89.8 100.8C89.5 100.5 89.2 100.3 88.8 100.3H86.6V103.6ZM95 98H97.5V104.8C97.5 106.7 98.3 107.7 99.9 107.7C101.5 107.7 102.2 106.7 102.2 104.8V98.1H104.7V105.2C104.8 106.6 104.3 107.9 103.3 108.9C102.3 109.8 101.1 110.2 99.8 110.2C98.5 110.2 97.3 109.8 96.3 108.9C95.3 107.9 94.8 106.6 94.9 105.2V98H95ZM107.4 109.9V98.1H112.2C113.2 98.1 114.1 98.5 114.8 99.2C115.6 99.9 116.1 101 116 102.1C116 103.2 115.6 104.3 114.8 105C114.1 105.7 113.1 106.1 112.1 106.1H109.8V109.9H107.4ZM109.9 103.7H112.1C112.5 103.7 112.8 103.6 113.1 103.3C113.4 103 113.6 102.5 113.6 102C113.6 101.5 113.5 101.1 113.1 100.8C112.8 100.6 112.5 100.4 112.1 100.4H110L109.9 103.7ZM116.1 109.9L120.8 98H123.1L127.8 109.9H125L124.2 107.9H119.4L118.6 109.9H116.1ZM120.2 105.8H123.6L122 101.5L120.2 105.8Z" fill="#F1F5F8"/>
</g>
<defs>
<filter id="filter0_i" x="0" y="0" width="320" height="116" filterUnits="userSpaceOnUse" color-interpolation-filters="sRGB">
<feFlood flood-opacity="0" result="BackgroundImageFix"/>
<feBlend mode="normal" in="SourceGraphic" in2="BackgroundImageFix" result="shape"/>
<feColorMatrix in="SourceAlpha" type="matrix" values="0 0 0 0 0 0 0 0 0 0 0 0 0 0 0 0 0 0 127 0" result="hardAlpha"/>
<feOffset dy="3"/>
<feGaussianBlur stdDeviation="3.5"/>
<feComposite in2="hardAlpha" operator="arithmetic" k2="-1" k3="1"/>
<feColorMatrix type="matrix" values="0 0 0 0 0 0 0 0 0 0 0 0 0 0 0 0 0 0 0.15 0"/>
<feBlend mode="normal" in2="shape" result="effect1_innerShadow"/>
</filter>
<clipPath id="clip0">
<rect width="320" height="113" fill="white"/>
</clipPath>
</defs>
</svg>
