<?xml version="1.0" encoding="utf-8"?>
<!-- Generator: Adobe Illustrator 22.1.0, SVG Export Plug-In . SVG Version: 6.00 Build 0)  -->
<svg version="1.1" id="Layer_1" xmlns="http://www.w3.org/2000/svg" xmlns:xlink="http://www.w3.org/1999/xlink" x="0px" y="0px"
	 viewBox="0 0 320 113" style="enable-background:new 0 0 320 113;" xml:space="preserve">
<style type="text/css">
	.st0{fill:#00AEEF;}
	.st1{fill:#ED0C6E;}
	.st2{fill:#FFFFFF;}
</style>
<title>Infostud logo</title>
<desc>Created with Sketch.</desc>
<g id="Desktop-Naslovna" transform="translate(-60.000000, -455.000000)">
	<g>
		<g id="Infostud-logo_6_" transform="translate(60.000000, 455.000000)">
			<path id="Shape_27_" class="st0" d="M69.9,88.7V54.6h10v34.2H69.9z M87,88.7V54.6h10v4.3c1.4-3,5.2-5,9.8-5
				c8.2,0,12.9,5.3,12.9,14.2v20.8h-9.9V69.2c0-4-2.2-6.5-6.1-6.5c-1.8-0.1-3.5,0.6-4.8,1.9c-1.3,1.3-1.9,3-1.9,4.9v19.3H87z
				 M129.3,88.7v-25h-5.5v-9.1h5.5v-0.9c0-4.9,1.3-8.5,3.9-10.6c1.9-1.6,5.1-2.5,9.3-2.5c1.3,0,2.7,0.1,4,0.3v8.4
				c-1-0.3-2-0.4-3-0.3c-3.2,0-4.6,1.2-4.6,4.1v1.6h6.7v9.1H139v24.9H129.3z M180.3,58.9c3.6,3.2,5.6,7.9,5.5,12.8
				c0.1,4.9-1.9,9.6-5.5,12.9c-7.5,7-19,7-26.5,0c-3.5-3.3-5.5-8-5.4-12.9c-0.1-4.9,1.9-9.5,5.4-12.8
				C161.2,51.8,172.8,51.8,180.3,58.9z M160.8,78c3.5,3.4,9,3.4,12.4,0c1.7-1.7,2.6-4,2.5-6.4c0-2.4-0.9-4.6-2.5-6.3
				c-1.6-1.7-3.9-2.6-6.2-2.6s-4.6,1-6.2,2.6c-1.7,1.7-2.6,3.9-2.5,6.3C158.2,74.1,159.2,76.4,160.8,78z M223.4,63.7H219v-9.1h4.4
				v-13h9.7v13h7.5v9.1h-7.5v12.2c0,3.3,1.3,4.5,4.3,4.5c0.9,0,1.7-0.1,2.5-0.3v9c-1.6,0.4-3.2,0.5-4.9,0.5
				c-7.8,0-11.6-4.1-11.6-12.2V63.7z M245.5,54.6h10.1v19.5c0,4.3,2.5,6.3,6.1,6.3s6.1-2,6.1-6.3V54.6h10.1V75
				c0.3,4.2-1.5,8.3-4.7,10.9c-3.3,2.6-7.4,3.9-11.5,3.8c-4.2,0.1-8.3-1.2-11.6-3.8c-3.1-2.7-4.9-6.7-4.6-10.9L245.5,54.6z
				 M309.7,59.1V41.5h10v47.2h-10v-4.4c-1,3-4.9,5.1-10,5.1c-4.5,0.1-8.9-1.7-12-5.1c-3.2-3.4-4.9-7.9-4.8-12.6
				c-0.1-4.7,1.6-9.2,4.8-12.5c3.1-3.4,7.4-5.3,12-5.1C304.7,54,308.7,56.1,309.7,59.1z M307.7,77.8c1.7-1.6,2.6-3.8,2.6-6.1
				c0-2.3-0.9-4.5-2.6-6c-1.6-1.7-3.9-2.6-6.2-2.5c-2.3-0.1-4.5,0.8-6.1,2.5c-1.6,1.6-2.5,3.8-2.5,6c0,2.3,0.9,4.5,2.5,6.1
				c1.6,1.6,3.8,2.5,6.1,2.4C303.8,80.3,306,79.4,307.7,77.8z M74.9,38.1c-3.1,0-5.6,2.6-5.5,5.7c0,3.1,2.5,5.7,5.6,5.7
				s5.6-2.5,5.6-5.7c0-1.5-0.6-3-1.6-4S76.4,38.1,74.9,38.1z M208.9,68.5c-3.7-1.4-6.5-1.8-7.8-2.4s-1.4-0.9-1.4-1.8
				c0-1.3,1.2-2.2,3.3-2.2c2.5,0.1,5,0.7,7.3,1.8l4.1-7.2c-3.4-1.9-7.3-3-11.2-3.1c-3.3-0.1-6.6,0.9-9.3,2.9c-2.5,1.9-4,4.9-3.8,8.1
				c0,4.5,2.6,7.7,7.7,9.5c1,0.3,2.5,0.8,4.5,1.3c1.4,0.3,2.8,0.7,4.1,1.4c0.7,0.3,1.1,0.9,1.1,1.6c0,1.8-1.7,3-5.1,2.6
				c-3.4-0.3-6.6-1.5-9.4-3.4l-4.4,7.7c4,2.9,8.7,4.4,13.5,4.5c9.9,0,14.8-4.5,14.8-11.5C217.1,73.6,214.4,70.4,208.9,68.5z"/>
			<path id="Shape_26_" class="st0" d="M62.3,54.5c-1.5-1.4-4-1.3-5.4,0.2c-0.9,0.9-2.1,1.7-3.3,2.3c-1,0.5-2.1,0.8-3.1,0.9
				c-1,0.2-2,0.2-2.9,0c-0.7-0.1-1.5-0.3-2.1-0.7c-5.8-4.1-2.2-9.1-5.8-12.3c10.5,0.5,20.7-2.1,27.9-11.4c0.5-0.6,0.6-1.3,0.5-2.1
				c-0.1-0.7-0.6-1.4-1.2-1.8c-1.2-0.7-2.8-0.5-3.6,0.7c-4.3,5.8-11.4,9.7-21,8.9c-5.1-0.2-9.9-2.3-13.5-5.9
				c-3.2-3.5-4.7-8.2-4.1-12.9c1-7.5,6.9-13.5,14.6-14.5c4.6-0.6,9.2,0.5,12.9,3.2c2.5,2.1,4.1,5,4.5,8.2c0.2,1.1-0.6,2.2-1.7,2.4
				c-1.1,0.2-2.2-0.4-2.5-1.5c-0.9-3.2-2.5-5.9-5.9-7.1c-4.9-1.6-10.2,0-13.3,4.1c-3.1,4-3.2,9.5-0.2,13.7c1.4,1.7,3.3,3,5.5,3.5
				c4.5,1.2,10.9,0.6,13.7-4.8c1.5,0.7,3.3,0.9,4.9,0.5c4.9-1.7,7.2-10.3,3.8-17C56.6,2.8,47.2-1.2,37.5,0.3
				c-9.8,1.5-17.5,9.2-19,18.9s3.7,19.2,12.6,23.4c0.4,0.2,0.9,0.4,1.3,0.6c-0.9,0-2,0.1-2.4,0.2c-1.9,0.2-3.7,0.5-5.6,0.9
				C14.8,46.5,6.4,52.1,0.7,60c-0.6,0.8-0.8,1.8-0.6,2.8s0.7,1.8,1.6,2.4c0.8,0.6,1.9,0.8,2.9,0.6c1-0.2,1.9-0.7,2.5-1.6
				c1.7-2.4,3.8-4.6,6.1-6.5c0.8-0.6,1.6-1.3,2.5-1.8c1.3-0.8,2.8-1.2,4.4-1.1c2.8,0,5.4,1.5,6.8,3.9c0.6,1.1,0.9,2.3,0.9,3.6
				C27.5,64,27,65.6,26,66.9L6.2,100.7L3.1,106c-0.8,1.4-0.8,3.2,0,4.6s2.4,2.3,4.1,2.3c1.7,0,3.2-0.9,4.1-2.3l12-20.3
				c0,0,2.1-3.6,2.9-4.8c0.5-0.9,1.8-3.2,2.1-3.6c1-1.2,2.4-2,4-2.1h0.6c3.2,0,5.8,2.6,5.9,5.7c0,0.8-0.1,1.5-0.5,2.2
				c-0.2,0.5-3.8,6.5-4.8,8.1c-0.8,1.4-0.8,3.2,0,4.6c0.8,1.4,2.4,2.3,4.1,2.3c1.7,0,3.2-0.9,4-2.3c1.3-2.1,5.7-9.5,5.9-9.8
				c0.9-1.7,1.3-3.6,1.3-5.6c0-6.7-5.2-12.2-12-12.9l1.6-2.8l2.2-3.7c0.5-1,1.7-1.5,2.8-1.1c6.8,2.2,14.3,0.3,19.2-4.8
				C63.9,58.2,63.8,55.9,62.3,54.5z M46.5,23.3c-1.9,2.2-5.2,2.5-7.5,0.7c-1-1-1.6-2.3-1.6-3.7s0.6-2.7,1.6-3.7
				c1.9-2.2,5.2-2.5,7.5-0.7c1,1,1.6,2.3,1.6,3.7S47.5,22.3,46.5,23.3z"/>
			<polygon id="Shape_25_" class="st1" points="129.9,112.9 138.7,96.6 69.4,96.6 69.4,112.9 			"/>
			<path id="Shape_24_" class="st2" d="M81.3,99.8l-1.7,1.5c-0.7-0.7-1.7-1.1-2.7-1.1c-1,0-1.9,0.4-2.6,1.1
				c-0.7,0.7-1.2,1.7-1.1,2.7c0,1,0.3,2,1,2.7c1.4,1.4,3.6,1.4,5.1,0.1v-1.7h-2.9v-2.3h5.4v4.8c-1.2,1.5-3,2.4-4.8,2.4
				c-1.6,0.1-3.2-0.5-4.4-1.7c-1.1-1.1-1.8-2.7-1.8-4.4c0-1.7,0.6-3.2,1.8-4.4c1.2-1.1,2.8-1.7,4.4-1.7
				C78.5,97.9,80.1,98.6,81.3,99.8z M84.1,109.9V98.1h4.8c1,0,2,0.4,2.7,1.1c0.9,0.9,1.3,2.1,1.1,3.3c-0.2,1.2-0.9,2.3-2,2.8
				l2.8,4.6h-2.9l-2.4-4h-1.7v4L84.1,109.9z M86.6,103.6h2c0.4,0,0.9-0.1,1.2-0.5c0.3-0.3,0.5-0.8,0.4-1.2c0-0.4-0.1-0.8-0.4-1.1
				c-0.3-0.3-0.6-0.5-1-0.5h-2.2L86.6,103.6z M95,98h2.5v6.8c0,1.9,0.8,2.9,2.4,2.9c1.6,0,2.3-1,2.3-2.9v-6.7h2.5v7.1
				c0.1,1.4-0.4,2.7-1.4,3.7c-1,0.9-2.2,1.3-3.5,1.3c-1.3,0-2.5-0.4-3.5-1.3c-1-1-1.5-2.3-1.4-3.7V98z M107.4,109.9V98.1h4.8
				c1,0,1.9,0.4,2.6,1.1c0.8,0.7,1.3,1.8,1.2,2.9c0,1.1-0.4,2.2-1.2,2.9c-0.7,0.7-1.7,1.1-2.7,1.1h-2.3v3.8L107.4,109.9z
				 M109.9,103.7h2.2c0.4,0,0.7-0.1,1-0.4c0.3-0.3,0.5-0.8,0.5-1.3c0-0.5-0.1-0.9-0.5-1.2c-0.3-0.2-0.6-0.4-1-0.4h-2.1L109.9,103.7z
				 M116.1,109.9l4.7-11.9h2.3l4.7,11.9h-2.8l-0.8-2h-4.8l-0.8,2H116.1z M120.2,105.8h3.4l-1.6-4.3L120.2,105.8z"/>
		</g>
	</g>
</g>
</svg>
